<svg width="380" height="143" viewBox="0 0 380 143" fill="none" xmlns="http://www.w3.org/2000/svg">
<g clip-path="url(#clip0_13_374)">
<path d="M0 96H380" stroke="#1F1F1F" stroke-linejoin="round"/>
<path opacity="0.2" d="M120.857 102.844C120.126 101.928 113.875 100.664 109.494 99.8743C104.856 96.7106 95.8589 94.5659 85.5188 94.5659C70.4307 94.5659 58.1984 99.1343 58.1984 104.772C58.1984 110.41 70.437 114.978 85.5188 114.978C100.601 114.978 112.83 110.406 112.83 104.772V104.725L114.295 103.697C117.154 101.702 121.996 104.264 120.857 102.844Z" fill="black"/>
<path opacity="0.2" d="M85.1328 112.711C96.8679 112.711 106.381 109.157 106.381 104.772C106.381 100.387 96.8679 96.8329 85.1328 96.8329C73.3978 96.8329 63.8846 100.387 63.8846 104.772C63.8846 109.157 73.3978 112.711 85.1328 112.711Z" fill="black"/>
<path d="M61.4495 79.6033C61.4495 79.6033 63.7121 90.471 63.7121 94.729C63.7121 98.987 63.6242 102.64 63.4516 102.988C63.279 103.336 60.4924 103.596 59.7957 105.161C59.099 106.725 60.8407 107.161 62.234 107.161C63.6273 107.161 65.1901 106.989 65.7142 105.945C66.2382 104.901 67.9768 93.4277 68.8523 89.5146C69.7278 85.6015 70.2362 82.7388 70.2362 82.7388L61.5373 77.3489L61.4495 79.6033Z" fill="#1F1F1F" stroke="#1F1F1F" stroke-linejoin="round"/>
<path d="M93.4018 104.157C93.4018 104.157 95.3913 108.29 101.514 110.428C107.636 112.567 114.835 114.094 112.538 119.456C110.241 124.817 95.6957 122.669 84.979 119.302C74.2624 115.934 61.5562 113.489 51.4514 115.938C41.3467 118.386 43.33 124.557 44.7641 125.325C49.239 127.727 51.6052 124.046 56.1994 121.904C60.7936 119.763 69.3638 119.913 75.7938 121.591C82.2238 123.268 94.7794 126.332 102.279 126.946C109.78 127.561 116.517 124.651 118.049 119.145C119.58 113.639 115.751 111.648 112.846 109.964C109.94 108.281 102.741 106.907 100.136 105.531C97.5315 104.154 96.4614 102.492 96.4614 102.492C96.4614 102.492 93.4018 102.016 93.4018 104.157Z" fill="#1F1F1F" stroke="#1F1F1F" stroke-linejoin="round"/>
<path d="M36.2598 29.4353C36.2598 29.4353 49.3834 28.0118 54.6742 29.1437C59.9651 30.2756 82.6443 35.5652 88.3148 37.829C93.9854 40.0929 102.559 42.943 102.559 42.943C102.559 42.943 88.1234 32.9094 82.8326 29.3318C77.5417 25.7542 62.0457 24.9891 57.1314 24.9891C52.2171 24.9891 36.2598 29.4353 36.2598 29.4353Z" fill="#1F1F1F" stroke="#1F1F1F" stroke-miterlimit="10"/>
<path d="M103.601 94.1363V90.1793C103.601 88.5896 102.22 83.9365 102.119 83.5948V83.5791L103.102 84.2438C103.102 84.2438 102.606 80.2868 102.606 79.1329C102.606 78.371 101.162 75.9473 100.186 74.3952C100.045 74.0064 99.8976 73.6238 99.7407 73.2507L101.288 74.0221C101.288 74.0221 100.626 72.702 99.9666 71.2189C99.361 69.8612 96.2668 67.2588 95.7522 66.8292L95.7082 66.7822L97.3275 67.4281C96.3881 66.181 95.3378 65.0214 94.1894 63.9634C92.5827 62.5053 89.9435 62.082 89.3567 62.0005L89.2939 61.9754L90.8881 61.6619C90.8881 61.6619 90.5146 61.5271 89.9466 61.3013C89.25 61.0317 88.2583 60.6303 87.2667 60.1788C85.4529 59.3542 82.1516 60.0158 82.1516 60.0158L82.9769 59.0249C82.9769 59.0249 79.1766 59.8496 77.1965 60.1631C76.4592 60.3246 75.6896 60.2466 74.9998 59.9405C71.7487 58.771 69.279 57.7457 67.848 53.8357C66.9844 51.4576 66.5025 48.9581 66.4202 46.4296C68.6301 45.4933 70.8862 44.6697 73.1797 43.962C76.299 43.0527 80.5888 44.3539 82.6694 45.2632C84.7499 46.1725 86.9592 47.0818 86.9592 47.0818L85.5282 43.8585L88.3901 45.8056C88.3901 45.8056 86.57 40.4753 84.7499 37.4934C82.9298 34.5116 83.8399 30.8681 83.7081 29.7017C83.5763 28.5353 77.3377 26.0645 69.7999 25.8043C62.2622 25.544 58.6188 25.8043 58.6188 25.8043C58.6188 25.8043 57.191 28.4005 54.5895 29.8303C51.988 31.26 48.2191 33.0786 47.4409 35.286C46.6626 37.4934 46.7881 37.2332 47.9586 36.8538C49.1292 36.4744 51.2097 36.3333 51.2097 36.3333C51.2097 36.3333 48.2191 39.1929 49.261 39.3214C50.3028 39.45 50.4283 38.5407 54.0686 38.6724C57.7088 38.8041 60.8281 43.2189 61.0885 45.0374C61.349 46.856 59.2684 54.5192 57.191 59.975C55.1136 65.4308 56.7987 72.3132 59.3877 76.8597C61.9766 81.4062 66.5363 86.9905 66.5363 86.9905C66.5363 86.9905 65.8867 98.9399 65.6262 101.019C65.4847 102.223 65.1785 103.403 64.7162 104.524C64.1819 104.425 63.6298 104.497 63.1392 104.731C62.6487 104.965 62.2449 105.348 61.986 105.825C61.076 107.512 63.417 108.422 65.1053 108.422C66.7936 108.422 68.7455 107.252 69.1378 106.227C69.5301 105.202 69.6556 102.201 70.1765 100.122C70.6974 98.0432 71.9966 91.6781 71.9966 91.6781C71.9966 91.6781 72.5175 97.3941 74.0772 100.642C75.6368 103.891 78.6275 105.973 78.6275 105.973C78.6275 105.973 76.6756 106.233 76.6756 107.92C76.6756 109.607 84.866 110.648 89.8054 109.739C94.7448 108.829 96.4363 107.271 96.5649 106.233C96.6936 105.195 96.3045 104.665 96.3045 104.665C96.3045 104.665 97.5785 104.584 98.9624 103.21V104.23C98.9624 104.23 100.12 103.239 100.45 102.58C100.604 102.267 100.685 101.417 100.729 100.599C100.874 100.285 101.012 99.9527 101.147 99.5921L101.605 100.602C101.986 99.63 102.316 98.6388 102.593 97.6324C102.712 97.0492 102.496 94.384 102.361 92.8884C102.361 92.6281 102.386 92.3648 102.396 92.092L103.601 94.1363Z" fill="#1F1F1F" stroke="#1F1F1F" stroke-linejoin="round"/>
<path d="M69.0217 34.7656L79.161 33.988C79.161 33.988 77.3409 36.973 73.7007 37.1047C70.0604 37.2364 69.0217 34.7656 69.0217 34.7656Z" fill="#F986BD" stroke="#1F1F1F" stroke-linejoin="round"/>
<path d="M63.8219 33.5114L57.0624 29.614C57.0624 29.614 56.8019 35.5777 63.8219 33.5114Z" fill="#F986BD" stroke="#1F1F1F" stroke-linejoin="round"/>
<path d="M74.231 36.7159C74.8799 36.7036 75.4975 36.4345 75.9481 35.9678C76.3988 35.501 76.6457 34.8748 76.6348 34.2263C76.6348 34.2044 76.6348 34.1856 76.6348 34.1667L71.8523 34.5336C71.9135 35.1249 72.1893 35.6733 72.6275 36.0754C73.0658 36.4774 73.6361 36.7053 74.231 36.7159Z" fill="#1F1F1F" stroke="#1F1F1F" stroke-linejoin="round"/>
<path d="M62.8867 32.9595L59.6074 31.0782C59.4632 31.3258 59.3874 31.6071 59.3877 31.8935C59.4161 32.3853 59.6365 32.8464 60.0014 33.1777C60.3664 33.5089 60.8469 33.6839 61.3396 33.665C61.6333 33.667 61.9239 33.6049 62.1912 33.4831C62.4584 33.3612 62.6958 33.1826 62.8867 32.9595Z" fill="#1F1F1F" stroke="#1F1F1F" stroke-linejoin="round"/>
<path d="M67.7571 35.3237C67.7571 35.3237 65.6765 34.4614 64.5405 34.6339C63.4045 34.8063 63.7528 35.6968 64.2487 36.396C64.7445 37.0953 65.0489 37.5875 65.9558 37.4496C66.8627 37.3116 68.3565 36.9291 68.5761 36.3553C68.7958 35.7815 67.7571 35.3237 67.7571 35.3237Z" fill="#ABABAB" fill-opacity="0.8" stroke="#1F1F1F" stroke-linejoin="round"/>
<path d="M61.0196 36.1641C60.765 36.6868 60.6566 37.2686 60.7057 37.8478C60.7811 38.8418 61.7758 40.2183 63.0028 40.2935C64.2299 40.3688 64.9924 39.2996 64.9924 39.2996C64.9924 39.2996 65.4506 41.2122 67.2895 41.3659C69.1285 41.5195 70.1985 39.6821 70.1985 38.6881" stroke="#626262" stroke-linejoin="round"/>
<path d="M62.3971 35.6278C62.3971 35.6278 53.5947 37.0827 47.3185 41.3658" stroke="white" stroke-linejoin="round"/>
<path d="M61.939 36.5465C61.939 36.5465 57.1942 38.6881 54.9724 41.2121" stroke="white" stroke-linejoin="round"/>
<path d="M61.5561 35.0164C61.5561 35.0164 55.6627 33.7151 51.0685 34.0224" stroke="white" stroke-linejoin="round"/>
<path d="M69.2885 37.6941C69.2885 37.6941 74.1871 39.8356 77.5543 46.1819" stroke="white" stroke-linejoin="round"/>
<path d="M69.1346 38.3055C69.1346 38.3055 72.6619 42.5134 73.0385 46.414" stroke="white" stroke-linejoin="round"/>
<path d="M69.9004 37.158C69.9004 37.158 77.708 38.9954 80.2342 41.9772" stroke="white" stroke-linejoin="round"/>
<path d="M69.21 34.4677C69.21 34.4677 72.2602 29.9369 75.0845 30.3069C77.9088 30.6769 79.0982 33.3546 79.0982 33.3546" stroke="#626262" stroke-linejoin="round"/>
<path d="M64.2204 33.2793C64.2204 33.2793 63.6241 29.3411 62.212 28.3754C60.7998 27.4097 57.3793 29.1217 57.3793 29.1217" stroke="#626262" stroke-linejoin="round"/>
<path d="M92.636 80.1426C92.636 80.1426 87.7374 74.9408 80.0835 74.9408C72.4296 74.9408 71.6106 87.3856 72.0154 91.6405" stroke="#626262" stroke-linejoin="round"/>
<path d="M78.6432 105.942C78.6432 105.942 84.3326 108.905 92.5984 106.12" stroke="#626262" stroke-linejoin="round"/>
<path d="M61.6126 21.631C61.6126 21.631 67.462 15.5261 73.7006 10.8511C79.9392 6.17606 85.1422 4.74627 89.8211 3.72409C94.5 2.70192 101.78 2.03406 105.81 2.03406C109.839 2.03406 112.312 2.94335 112.441 3.72409C112.569 4.50484 110.621 4.1129 108.151 4.24145C105.681 4.37001 98.3944 8.1138 94.8923 10.7225C91.3902 13.3313 86.4414 19.295 86.1809 20.2043C85.9204 21.1136 84.8817 28.2563 84.8817 28.2563C84.8817 28.2563 76.3021 23.1893 71.0928 23.1893C65.8836 23.1893 60.8218 23.321 60.8218 23.321L61.6126 21.631Z" fill="#F986BD" stroke="#1F1F1F" stroke-linejoin="round"/>
<path d="M86.1809 20.2074C84.9256 18.6992 82.6348 16.6204 78.7718 15.1373C75.8611 14.0487 72.7264 13.6954 69.6462 14.1089C65.143 17.9467 61.6126 21.6341 61.6126 21.6341L60.8312 23.3241C60.8312 23.3241 65.9024 23.1924 71.1022 23.1924C76.3021 23.1924 84.8817 28.2594 84.8817 28.2594C84.8817 28.2594 85.9173 21.1355 86.1809 20.2074Z" fill="#1F1F1F" stroke="#1F1F1F" stroke-linejoin="round"/>
<path d="M36.2598 29.4352C36.2598 29.4352 47.6982 27.7452 59.008 27.6166C70.3177 27.4881 74.3502 28.7862 79.5501 30.7333C84.7499 32.6805 102.559 42.943 102.559 42.943C102.559 42.943 98.1371 39.0456 93.4582 35.1481C88.7793 31.2507 84.3577 24.7571 78.5082 22.2926C72.6588 19.828 69.5395 19.1759 61.8762 20.7248C54.2129 22.2737 36.2598 29.4352 36.2598 29.4352Z" fill="#F986BD" stroke="#1F1F1F" stroke-linejoin="round"/>
<path d="M112.441 3.72409C112.312 2.94962 109.88 2.04974 105.907 2.03406C106.495 2.72526 106.814 3.60428 106.808 4.51111C107.244 4.37308 107.695 4.28267 108.151 4.24145C110.633 4.09722 112.572 4.48602 112.441 3.72409Z" fill="#1F1F1F" stroke="#1F1F1F" stroke-linejoin="round"/>
<path d="M100.905 2.22534C99.8663 2.30059 98.7836 2.39779 97.6947 2.51067C99.1134 3.76427 100.079 5.45053 100.441 7.30799C101.322 6.83453 102.21 6.38929 103.067 5.98795C102.775 4.53234 102.016 3.21151 100.905 2.22534Z" fill="#1F1F1F" stroke="#1F1F1F" stroke-linejoin="round"/>
<path d="M88.4498 17.1033C89.2783 16.1188 90.2637 15.0182 91.2898 13.9678C89.4139 10.241 86.181 7.37331 82.2552 5.95349C79.7722 6.96671 77.4077 8.2484 75.2039 9.77567C78.9759 9.56873 84.4927 10.6223 88.4498 17.1033Z" fill="#1F1F1F" stroke="#1F1F1F" stroke-linejoin="round"/>
<path d="M97.2459 9.14225C96.6942 6.65468 95.1789 4.48672 93.0314 3.11267C91.886 3.29139 90.7971 3.49207 89.8211 3.70841C88.8985 3.91222 87.954 4.13484 86.9968 4.39196C89.0492 5.3765 92.3818 7.54627 93.7626 11.6381C94.1549 11.3026 94.5377 10.9922 94.9049 10.7225C95.5702 10.2271 96.3641 9.68155 97.2459 9.14225Z" fill="#1F1F1F" stroke="#1F1F1F" stroke-linejoin="round"/>
<path d="M77.2028 13.5758L72.7341 20.6558L79.1108 23.6565L79.4623 22.7158L74.7268 20.0694L77.8932 14.7987C77.8932 14.7987 81.1914 15.9118 82.1359 16.68L82.5878 15.8177C82.5878 15.8177 80.0177 13.6918 77.2028 13.5758Z" fill="white" stroke="#1F1F1F" stroke-linejoin="round"/>
<path d="M77.6547 17.8966C77.5764 17.8969 77.4995 17.8763 77.4318 17.837C76.739 17.4678 76.013 17.1645 75.2634 16.9308C75.2057 16.9135 75.152 16.8851 75.1053 16.847C75.0586 16.809 75.0199 16.7621 74.9914 16.7091C74.9628 16.6562 74.945 16.5981 74.9389 16.5382C74.9328 16.4783 74.9386 16.4178 74.9559 16.3602C74.9732 16.3025 75.0017 16.2489 75.0398 16.2022C75.0778 16.1556 75.1247 16.1169 75.1777 16.0884C75.2308 16.0598 75.2889 16.042 75.3489 16.0359C75.4088 16.0298 75.4693 16.0356 75.527 16.0529C76.341 16.3044 77.1291 16.633 77.8806 17.0343C77.9693 17.0844 78.0389 17.1623 78.0786 17.256C78.1183 17.3497 78.1258 17.454 78.1 17.5524C78.0742 17.6508 78.0165 17.738 77.936 17.8003C77.8554 17.8625 77.7565 17.8964 77.6547 17.8966Z" fill="white" stroke="#1F1F1F" stroke-linejoin="round"/>
<path d="M59.4033 23.7098L64.3427 22.8005C64.3427 22.8005 63.3009 19.2951 62.0017 17.9938C60.7025 16.6926 59.4033 23.7098 59.4033 23.7098Z" fill="#1F1F1F" stroke="#1F1F1F" stroke-linejoin="round"/>
<path d="M60.1597 23.5436C60.1597 23.5436 60.8344 17.7963 61.7507 18.5268C62.667 19.2574 63.8909 22.8664 63.8909 22.8664L60.1597 23.5436Z" fill="#F986BD" stroke="#1F1F1F" stroke-linejoin="round"/>
<path d="M80.1934 26.1774L83.5731 28.5165C83.5731 28.5165 85.5219 25.0079 85.001 23.321C84.48 21.6341 80.1934 26.1774 80.1934 26.1774Z" fill="#1F1F1F" stroke="#1F1F1F" stroke-linejoin="round"/>
<path d="M80.8932 26.6132C80.8932 26.6132 83.8901 22.9478 84.2572 24.0452C84.6244 25.1427 83.4633 28.3848 83.4633 28.3848L80.8932 26.6132Z" fill="#F986BD" stroke="#1F1F1F" stroke-linejoin="round"/>
</g>
<defs>
<clipPath id="clip0_13_374">
<rect width="380" height="143" fill="white"/>
</clipPath>
</defs>
</svg>
