<svg width="137" height="163" viewBox="0 0 137 163" fill="none" xmlns="http://www.w3.org/2000/svg">
<g clip-path="url(#clip0_5_73)">
<path d="M6.75253 37.7347L2.99356 43.5646C8.84409 37.3627 22.6709 39.5312 22.6709 39.5312C24.0945 37.7445 28.9163 36.1635 28.9163 36.1635C13.7878 32.228 6.75253 37.7347 6.75253 37.7347Z" fill="#2F80ED"/>
<path d="M111.514 137.127C136.646 111.894 136.646 70.9839 111.514 45.7511C86.3813 20.5183 45.6334 20.5183 20.5009 45.7511C-4.63164 70.9839 -4.63165 111.894 20.5009 137.127C45.6334 162.36 86.3813 162.36 111.514 137.127Z" fill="#56CCF2"/>
<g opacity="0.3">
<path d="M58.6955 27.9254C58.6631 27.9213 58.6304 27.9213 58.598 27.9254C58.4541 27.9291 58.3106 27.9438 58.169 27.9694L57.6814 28.1505C57.6814 28.1505 57.6278 28.1505 57.6375 28.1897C57.6473 28.2288 57.7789 28.3219 58.4127 28.1456C58.7491 28.0379 58.7443 27.9547 58.6955 27.9254Z" fill="black"/>
<path d="M57.696 27.4109C57.7945 27.3956 57.8909 27.3694 57.9837 27.3331C57.9837 27.3331 57.9593 27.3331 57.9447 27.3331C57.8472 27.3331 57.6229 27.3574 57.5839 27.3671C57.5449 27.3769 57.4864 27.406 57.4961 27.4206C57.5626 27.4334 57.6311 27.43 57.696 27.4109Z" fill="black"/>
<path d="M59.7096 27.1715C59.818 27.1862 59.9279 27.1862 60.0362 27.1715C60.0362 27.1715 60.2069 27.1715 60.4604 27.1226C60.4604 27.1226 60.7481 27.0785 60.7968 27.0638C60.8456 27.0492 60.7968 27.0638 60.7383 27.0638C60.0695 27.0754 59.4019 27.1277 58.7394 27.2205H59.2611C59.4086 27.1895 59.5589 27.1731 59.7096 27.1715Z" fill="black"/>
<path d="M58.559 27.382C58.6985 27.3535 58.8408 27.3403 58.9832 27.3429C59.1148 27.3429 59.2952 27.3429 59.3976 27.3086H59.4561H59.3781C58.6318 27.2844 57.8865 27.3786 57.1695 27.5876C57.6302 27.5807 58.0897 27.5398 58.5444 27.4653C58.5418 27.4367 58.5469 27.408 58.559 27.382Z" fill="black"/>
<path d="M59.5926 27.6414L59.6657 27.617L59.7925 27.5533L60.0265 27.4603C60.0704 27.4603 60.0753 27.4603 60.0753 27.431C60.0753 27.4016 60.0753 27.431 60.046 27.431C59.8089 27.4461 59.5755 27.4973 59.3537 27.5827C59.383 27.5827 59.3829 27.5827 59.2513 27.7002C59.3661 27.6873 59.4801 27.6677 59.5926 27.6414Z" fill="black"/>
<path d="M56.4918 28.5911C56.4707 28.5888 56.4495 28.5888 56.4284 28.5911C56.3651 28.5866 56.3016 28.5866 56.2383 28.5911C56.0169 28.6232 55.7995 28.679 55.5898 28.7575C55.8521 28.7644 56.1142 28.7381 56.3699 28.6792C56.4528 28.6498 56.5552 28.6155 56.4918 28.5911Z" fill="black"/>
<path d="M56.5796 29.761C56.5796 29.7365 56.5454 29.712 56.4089 29.6875H56.3309L55.6435 29.5896C55.1483 29.5681 54.6531 29.6344 54.1809 29.7854C54.1809 29.7854 54.332 29.8197 54.3807 29.8931C54.4295 29.9665 54.4149 30.0351 54.3807 30.0595C54.0727 30.1854 53.7546 30.2853 53.43 30.3581C53.352 30.3581 53.3472 30.3581 53.313 30.3581C53.313 30.177 53.547 30.1917 53.6007 30.0498C53.3058 30.046 53.0145 30.1149 52.7523 30.2504C52.7523 30.2504 52.7231 30.2847 52.728 30.2994C52.728 30.4364 52.728 30.5686 52.728 30.7057C52.7352 30.7576 52.7352 30.8103 52.728 30.8623C52.6938 30.9553 52.6061 31.0189 52.5866 31.1217C52.5866 31.1217 52.5866 31.1609 52.5866 31.1756C52.689 31.4007 54.41 31.063 54.9365 30.8036C55.0535 30.7497 55.4777 30.3141 55.312 30.2847C55.1301 30.253 54.9456 30.2383 54.761 30.2407C55.1706 30.133 55.5996 30.1085 56.014 30.0008C56.2069 29.9316 56.3957 29.8516 56.5796 29.761Z" fill="black"/>
<path d="M52.4988 28.2533C53.2155 28.1946 53.8981 27.94 54.6099 27.8519C54.341 27.8918 54.0765 27.9574 53.8201 28.0477L56.3212 27.5925C56.3977 27.5802 56.4708 27.5519 56.5357 27.5093C56.5086 27.5018 56.4799 27.5018 56.4528 27.5093C54.8247 27.7111 53.2098 28.0085 51.6164 28.4002C51.943 28.4736 52.2307 28.2876 52.5427 28.2484L52.4988 28.2533Z" fill="black"/>
<path d="M50.9582 32.6734H50.9289C50.8705 32.6745 50.8127 32.6861 50.7583 32.7077C50.4319 32.8632 50.0965 32.9989 49.7539 33.1139C49.1591 33.2412 48.9787 33.2804 48.93 33.344C48.994 33.3688 49.0614 33.3837 49.1299 33.3881C49.3347 33.4125 49.3542 33.4223 49.3834 33.4615C49.4127 33.5006 49.3834 33.6279 49.4565 33.6866C49.5531 33.7262 49.655 33.751 49.7588 33.7601C50.2177 33.8636 50.6965 33.833 51.1386 33.672C51.2751 33.5936 51.1922 33.0748 51.1922 33.0699C51.1593 32.9157 51.0771 32.7765 50.9582 32.6734Z" fill="black"/>
<path d="M53.4008 29.5064C53.3498 29.4918 53.2976 29.4819 53.2448 29.477C52.9108 29.445 52.5743 29.5024 52.2697 29.6435C52.2697 29.6435 52.3672 29.6435 52.4062 29.6875C52.4452 29.7316 52.4062 29.7267 52.3282 29.805C52.2502 29.8833 52.1624 29.9763 52.2648 29.9763C52.5481 29.9227 52.8245 29.8374 53.0887 29.7218C53.4056 29.6141 53.4885 29.5456 53.4008 29.5064Z" fill="black"/>
<path d="M97.6113 43.031C97.3919 42.3653 96.88 41.8416 96.6801 41.1661C96.6362 40.7332 96.6362 40.2969 96.6801 39.864C96.6313 39.3745 96.763 39.2717 97.0945 39.1102C97.5479 38.885 97.3675 38.6648 96.8166 38.0088C95.0176 35.8649 95.0127 35.8257 94.925 35.4537L94.9932 35.3754H95.1248C94.6909 34.4943 93.1747 34.5335 93.2771 33.1874L93.0918 32.9916L93.2039 32.8203H93.3063C93.0235 32.6734 92.1849 32.3308 92.1752 32.3308C91.7018 32.1531 91.2118 32.0235 90.7126 31.9441C90.186 31.856 89.8789 31.3812 89.4059 31.1952C88.7478 30.9357 87.2705 30.412 86.6757 30.2162C85.569 29.8931 85.569 29.8931 85.4178 29.9323C84.8309 29.7316 84.2271 29.5841 83.6139 29.4917C83.6139 29.4917 83.5895 29.4917 83.5749 29.4917H83.609C83.9098 29.6032 84.1988 29.7442 84.472 29.9127C84.4086 29.9127 84.4086 29.9127 83.6481 29.6141C83.3803 29.5129 83.1068 29.4279 82.829 29.3596C81.1288 28.9591 79.3806 28.8025 77.6366 28.8946C77.7195 28.9778 77.7195 28.9778 78.1242 29.1197C77.6902 29.384 76.8224 29.3204 76.3593 29.2861C75.5172 29.2257 74.6724 29.2126 73.8289 29.247C72.9562 29.8393 74.3554 30.6225 74.3749 30.6273C78.1729 31.6602 78.2071 31.714 78.3874 32.0322C78.3874 32.0322 79.4503 34.5873 78.524 35.4341C78.1534 35.7768 78.1485 35.7915 78.1388 35.8551C78.0998 36.0949 78.3631 36.2026 78.3728 36.4229C78.3728 36.7558 78.1534 37.0446 78.2168 37.4019C78.7433 37.4606 79.3138 37.0886 79.8062 37.5536C80.6448 38.3466 79.9037 38.9878 79.894 38.9927C79.3186 39.3354 78.5825 39.0515 78.0267 39.4822C77.5882 39.8773 77.3018 40.4143 77.2173 40.9996C77.2173 41.2542 78.3777 47.1917 79.6014 48.1511C82.8338 50.0405 82.9362 49.9818 83.2434 49.8104C83.7553 49.5265 85.491 46.57 85.5105 46.5406C85.764 46.105 85.6909 45.5225 86.115 45.1652C86.3393 44.9792 86.3539 44.9792 87.3144 45.0183C90.3372 45.1554 90.3372 45.1554 90.5858 44.661C90.8344 44.1666 90.9905 43.868 91.5609 43.7897C92.965 43.6037 94.3643 44.0002 95.7684 43.7897C96.3481 43.7599 96.9249 43.6879 97.4943 43.5743C97.4943 43.5743 97.7625 43.4911 97.6113 43.031Z" fill="black"/>
<path d="M61.9182 36.4278C62.1912 36.0998 62.1912 35.904 61.9182 35.8551C61.9182 35.8551 61.0504 35.7866 60.7773 36.0851C60.6262 36.2614 60.7773 36.9026 60.87 37.0348C61.0894 37.3529 61.8889 36.4376 61.9182 36.4278Z" fill="black"/>
<path d="M71.4302 27.2008C71.2303 27.2008 71.0255 27.2008 70.8256 27.2008C71.4399 27.2693 73.4437 27.4112 73.7509 27.4308C72.562 27.4345 71.3739 27.3724 70.1918 27.2448C70.0294 27.2094 69.8602 27.2213 69.7043 27.2791C69.5934 27.487 69.4238 27.6573 69.2167 27.7686C68.7292 27.4112 67.0179 27.7343 66.9448 27.7686C67.052 27.8665 67.208 27.8958 67.3007 28.0133L67.2617 28.0671C67.5733 28.1268 67.8917 28.1416 68.2075 28.1112C66.9643 28.3168 66.8911 28.1357 66.8424 28.0182C66.0428 27.7588 65.8917 28.0427 65.8234 28.1846C65.2676 28.3217 64.6728 28.1455 64.1365 28.4C64.1343 28.4228 64.1343 28.4457 64.1365 28.4685C64.4891 28.5899 64.8565 28.6624 65.2286 28.6839C65.8819 28.7818 66.5693 28.5371 67.1788 28.9189C67.0861 29.0217 67.0862 29.0217 66.9106 29.0804C67.325 29.3251 68.9924 29.1342 68.9876 28.7329L68.8413 28.6398C69.3353 28.4477 69.8541 28.3274 70.3819 28.2825C71.7617 28.4245 72.376 28.1014 72.4248 27.9986C72.4065 27.9824 72.3869 27.9677 72.3663 27.9546C73.6534 28.0574 74.2384 28.1063 74.6918 27.9937C74.5942 27.9467 74.488 27.92 74.3798 27.9154L77.4903 28.0329C76.7688 27.886 76.7298 27.8762 76.4616 27.8028C77.1832 27.8616 77.895 27.9986 78.6166 28.0623C77.9779 27.842 76.8614 27.5728 76.8565 27.5728C76.8517 27.5728 74.1165 27.0833 73.4876 27.1224C73.5025 27.1668 73.5275 27.207 73.5607 27.2399C73.389 27.2381 73.2209 27.1908 73.0732 27.1029C72.8977 27.0147 70.5087 26.7749 70.1869 26.9707C70.3625 27.0931 70.3868 27.1126 71.4302 27.2008Z" fill="black"/>
<path d="M59.5731 28.0184C59.505 28.0796 59.4333 28.1368 59.3586 28.1897C59.2047 28.2725 59.0409 28.3351 58.871 28.3757L59.0417 28.1848C59.0688 28.1554 59.0917 28.1225 59.1099 28.0869C59.0158 28.0615 58.9174 28.0557 58.821 28.0701C58.7245 28.0844 58.632 28.1184 58.5493 28.1701H58.6224C58.625 28.1781 58.625 28.1866 58.6224 28.1946C58.2724 28.265 57.9165 28.3011 57.5595 28.3023C57.5985 28.3414 57.6619 28.3023 57.7009 28.3512C57.6375 28.4148 57.6375 28.4148 57.6327 28.4295C57.6278 28.4442 57.6814 28.4638 58.6078 28.4834C58.1601 28.5282 57.7232 28.649 57.3158 28.8407C57.3158 28.8407 58.403 28.8407 58.5493 28.8015C58.8269 28.723 59.0976 28.6215 59.3586 28.4981C59.3595 28.5136 59.357 28.5292 59.3511 28.5436C59.3452 28.558 59.336 28.5709 59.3244 28.5813C59.7081 28.4066 60.1003 28.2514 60.4994 28.1163C60.6798 28.0477 60.6944 28.0428 60.7286 28.0135C60.7006 27.9923 60.666 27.9818 60.6311 27.9841C60.6311 27.9841 59.6901 27.9351 59.5877 27.9547L59.5731 28.0184Z" fill="black"/>
<path d="M66.4718 38.1116C66.8814 38.2193 67.3689 39.6242 67.3738 39.6438C67.4859 39.9864 67.6029 40.3437 67.8126 40.3731C68.3928 40.4661 69.9383 38.6599 69.9529 38.6403C70.0025 38.5792 70.0405 38.5095 70.0651 38.4347L66.3987 36.1194C66.8509 36.0009 67.3161 35.9401 67.7833 35.9383C68.2709 35.8992 68.5098 35.8796 68.5342 35.7621C68.6024 35.4635 67.6663 33.6377 67.0276 33.2902C66.74 33.1335 66.389 33.114 66.1501 32.8692C65.9112 32.6245 66.1062 32.1105 65.6918 31.9294C65.0278 31.7836 64.3457 31.7391 63.6685 31.7972C62.9664 31.7972 62.9615 31.7972 62.864 31.7679C62.8858 31.3701 62.9766 30.9791 63.1322 30.6127C62.7218 30.4171 62.2819 30.2914 61.8304 30.2407C60.5336 30.0987 55.9019 31.8511 56.4138 32.5462C56.9257 33.2412 59.3781 33.579 59.7389 33.5251C59.7632 33.3195 59.7779 33.1825 60.8163 33.4223C61.6988 33.6279 61.8938 33.4664 62.0303 33.3587C62.2306 33.6321 62.413 33.9182 62.5764 34.2153C62.7616 34.6314 62.7324 35.1013 62.8933 35.5222C63.0932 36.0607 63.8976 36.2907 63.6441 37.0543C63.6441 37.0543 62.8689 38.7088 60.2654 38.5865C59.4853 38.5473 58.7296 38.2389 57.9349 38.3613C57.7921 38.3997 57.6663 38.4854 57.5779 38.6043C57.4894 38.7233 57.4435 38.8688 57.4474 39.0172C57.54 39.1787 57.9349 39.3745 59.3244 39.3941C60.3824 39.3941 60.3824 39.3941 61.8109 40.7402C61.6208 40.8381 61.6208 40.8381 60.8358 40.8528C61.0894 41.3129 63.7611 42.9331 64.4632 42.8107C64.4632 42.7128 64.4632 42.7128 64.3462 42.5905C63.9958 42.0431 63.6862 41.4704 63.4198 40.8773C64.0938 41.1249 64.6758 41.5743 65.0872 42.1646C65.1701 42.2772 65.2335 42.3604 65.292 42.3653C65.6479 42.3653 66.6084 41.3521 66.4426 40.9898C66.0916 40.2116 65.019 39.9179 65.019 38.8948C65.0482 38.0627 66.4621 38.1068 66.4718 38.1116Z" fill="black"/>
<path d="M55.4387 27.8123C55.602 27.8377 55.7691 27.8244 55.9263 27.7734C55.9733 27.7667 56.0193 27.7536 56.0628 27.7345H56.0676C55.8558 27.7376 55.6449 27.7637 55.4387 27.8123Z" fill="black"/>
<path d="M65.5114 31.528C65.1105 31.1272 64.6024 30.8518 64.0488 30.735C63.4686 30.6322 63.5076 31.063 63.6002 31.2245C63.9269 31.6944 65.4919 31.528 65.5114 31.528Z" fill="black"/>
<path d="M62.2351 27.152C62.0326 27.1533 61.8306 27.1697 61.6305 27.2009H61.7183C61.9107 27.2098 62.1002 27.2512 62.279 27.3233C62.2205 27.4163 62.0888 27.3624 62.0303 27.4554C62.0303 27.5142 62.5764 27.4897 62.6154 27.4848C62.9459 27.4088 63.2598 27.2728 63.5417 27.0834C63.4783 27.0345 63.4003 27.0834 63.332 27.0492C63.4344 26.9513 63.5807 27.0149 63.688 26.9415C63.688 26.9415 63.688 26.9415 63.6392 26.9415C63.1812 26.937 62.7234 26.9648 62.2692 27.0247C62.3618 27.0932 62.4886 27.0492 62.5861 27.0932C62.591 27.1324 62.5227 27.1471 62.2351 27.152Z" fill="black"/>
<path d="M59.0319 28.8799C58.8857 28.919 58.8369 28.9337 58.9783 29.1099C59.1239 29.2004 59.2907 29.2507 59.4619 29.2558C59.6331 29.261 59.8026 29.2208 59.9534 29.1393C60.1972 29.0463 60.7237 28.782 60.5531 28.7036C60.5273 28.699 60.5008 28.699 60.4751 28.7036C59.9901 28.7237 59.5075 28.7826 59.0319 28.8799Z" fill="black"/>
<path d="M65.2676 27.8617H65.2237H65.1847C64.9117 27.8617 64.6387 27.8617 64.3657 27.8617C64.0926 27.8617 63.7416 27.803 63.4247 27.7932C63.2869 27.7784 63.148 27.7784 63.0103 27.7932C63.481 27.9091 63.9604 27.9861 64.4437 28.0232C64.6928 28.0432 64.9434 28.0116 65.1799 27.9302L65.2676 27.8617Z" fill="black"/>
<path d="M63.0639 27.5681C63.1614 27.5681 64.1316 27.5289 64.4144 27.4995C64.5412 27.4995 64.5704 27.475 64.5899 27.431C64.6094 27.3869 64.5168 27.3723 64.5363 27.3233C64.5558 27.2744 64.5655 27.2792 64.5607 27.2499C64.5554 27.2353 64.545 27.2231 64.5314 27.2156C64.4977 27.1905 64.4562 27.1784 64.4144 27.1813C64.3617 27.187 64.3095 27.1968 64.2584 27.2107C64.0244 27.2744 63.8293 27.4457 63.5758 27.4506C63.3223 27.4555 63.1663 27.4555 63.0639 27.5681Z" fill="black"/>
<path d="M65.4821 26.9848C65.7276 26.9768 65.9713 26.9409 66.2086 26.8778C66.186 26.8733 66.1628 26.8733 66.1403 26.8778C66.1403 26.8778 65.4675 26.8778 65.2627 26.8778C65.058 26.8778 65.0726 26.9994 65.0726 26.9994C65.0726 26.9994 65.2676 27.0091 65.4821 26.9848Z" fill="black"/>
<path d="M66.8716 27.1618C67.1593 27.1618 67.2471 27.1618 67.3202 27.245V27.2743C67.1583 27.2943 66.9945 27.2943 66.8326 27.2743C66.4902 27.2484 66.1463 27.2484 65.8039 27.2743C65.6138 27.3184 65.5358 27.4995 65.5894 27.5533C65.643 27.6072 65.5894 27.5534 66.0769 27.5974C66.2671 27.5974 66.4426 27.7149 66.6425 27.7149C67.13 27.7149 67.5883 27.5582 68.0661 27.5191C68.3635 27.4946 68.6609 27.5631 68.9583 27.5191H69.0217C69.0217 27.5191 69.0217 27.5191 68.8413 27.3918C68.8413 27.3918 68.8413 27.3918 68.8413 27.3673H68.9973C69.4069 27.3282 69.4166 27.3135 69.4361 27.2792C69.4556 27.245 69.3532 27.2548 69.3289 27.2107C69.4117 27.1569 69.5531 27.1813 69.5726 27.0394C69.6799 26.9758 69.8115 26.9855 69.9139 26.917L69.8359 26.8876C69.0233 26.8533 68.2093 26.8664 67.3982 26.9268C67.4791 26.9581 67.565 26.9747 67.6517 26.9758C67.4373 27.0149 67.2177 27.0149 67.0033 26.9758C66.7142 26.9367 66.42 26.9808 66.155 27.103C66.3911 27.1479 66.6314 27.1676 66.8716 27.1618Z" fill="black"/>
<path d="M60.5238 29.4379C60.5628 29.4379 65.0628 30.5343 66.6132 29.7952C67.0325 29.5945 66.2817 29.2812 66.2719 29.2763C65.2637 29.1421 64.2459 29.0946 63.2297 29.1344C62.8153 29.1344 62.6495 28.7183 62.7421 28.6449C62.8269 28.6236 62.9157 28.6236 63.0005 28.6449C63.7757 28.6938 63.4881 28.3463 63.4296 28.3169C63.2463 28.281 63.0604 28.2597 62.8738 28.2533C62.6592 28.2093 62.4886 28.0624 62.2741 28.0086C62.1359 27.977 61.9958 27.9541 61.8548 27.94C61.6243 27.9957 61.4115 28.1085 61.2356 28.268C61.3294 28.301 61.4293 28.3127 61.5281 28.3023C61.7427 28.3023 62.0449 28.3023 62.0888 28.361C62.1327 28.4197 61.6695 28.7917 61.6451 28.8064C61.3481 28.8708 61.0551 28.9525 60.7676 29.0512C60.2508 29.3693 60.4019 29.3987 60.5238 29.4379Z" fill="black"/>
<path d="M53.2643 28.1799C53.1034 28.2044 51.7675 28.4589 51.6846 28.5128C51.748 28.5323 51.8065 28.5519 53.2643 28.1799Z" fill="black"/>
<path d="M45.3709 30.6567V30.691C45.3981 30.6982 45.4266 30.6982 45.4538 30.691C45.8975 30.5735 46.307 30.3728 46.7458 30.2504C47.5405 30.0302 48.3596 29.9029 49.1494 29.6631C49.3346 29.6043 49.3346 29.6043 49.6369 29.3204V29.2764C49.4042 29.2786 49.1728 29.3132 48.9495 29.3792C49.1591 29.2959 49.1591 29.2959 49.2274 29.1931H49.1396C48.2377 29.247 48.2377 29.247 43.7766 30.8868C43.3463 31.0143 42.9565 31.2522 42.6455 31.577L42.6748 31.6014C43.6401 31.4644 44.4738 30.9553 45.3709 30.6567Z" fill="black"/>
<path d="M51.3823 29.0708C51.63 29.0829 51.8781 29.0582 52.1185 28.9974C53.4008 28.7722 54.0297 28.7281 54.0346 28.7281C54.4246 28.7281 54.8195 28.7281 55.2096 28.6939C55.5216 28.6498 56.7551 28.3023 56.7648 28.3023C57.0037 28.2337 57.0232 28.2142 57.0574 28.1848C56.9521 28.1499 56.8399 28.1415 56.7307 28.1603C56.365 28.224 56.0189 28.3708 55.6581 28.4393C56.1457 28.1995 56.7015 28.0526 57.2036 27.7981H57.1597C57.1597 27.7981 55.6971 28.0037 55.585 28.1652C55.4728 28.3267 55.2339 28.5421 54.2101 28.4295V28.4002L54.3125 28.3463H54.3466C54.5221 28.2533 54.9902 28.3463 54.8829 28.0575C54.8537 28.0575 51.8894 28.3904 51.748 28.733C52.2392 28.6796 52.7274 28.6011 53.2106 28.4981C53.0044 28.6114 52.78 28.6876 52.5476 28.7232C52.5768 28.7232 52.5866 28.7232 52.9376 28.6792C53.1424 28.6469 53.3495 28.6321 53.5568 28.6351C52.8953 28.7742 52.2262 28.8739 51.553 28.9337C51.3287 28.919 51.2897 29.0267 51.3823 29.0708Z" fill="black"/>
<path d="M42.1239 32.8888C42.2945 32.9965 42.4895 32.8888 42.665 32.9573V32.9965C42.509 33.1874 42.2555 33.2412 42.08 33.4027C43.2384 33.4159 44.3912 33.239 45.4928 32.879C45.734 32.7708 45.9907 32.7014 46.2534 32.6734L46.2826 32.7126C46.1461 32.8349 46.1461 32.8349 46.1266 32.8643C46.3276 33.051 46.5483 33.2151 46.7848 33.3538C47.4625 33.3538 47.4625 33.3538 48.2864 32.9035H48.3254C48.2669 32.8692 48.2669 32.8692 47.599 32.9769C47.7802 32.8409 47.9892 32.7471 48.211 32.7023C48.4328 32.6574 48.6617 32.6626 48.8812 32.7175C49.0226 32.7762 49.0567 32.7811 49.125 32.7566C49.1933 32.7321 49.5345 32.5853 49.5735 32.3112C49.3151 32.0175 49.3103 31.6161 49.5492 31.4693C49.7881 31.3224 51.6407 30.1819 51.6554 30.0399C51.6035 29.9918 51.5481 29.9476 51.4896 29.9078C51.4872 29.885 51.4872 29.862 51.4896 29.8393C50.7046 30.1379 50.027 30.7106 49.1835 30.8672C49.2176 30.5539 49.554 30.5637 49.7149 30.3777L49.6711 30.3239C49.36 30.3771 49.0455 30.4082 48.7301 30.4169C48.8617 30.3141 49.0324 30.2847 49.1543 30.1623C49.1525 30.1493 49.1525 30.1362 49.1543 30.1232C48.7155 30.1232 48.3108 30.3092 47.8818 30.319C48.2567 30.1436 48.6427 29.9932 49.0372 29.8686C48.7886 29.8099 44.9662 30.735 44.9126 31.1364L45.0101 31.2441C44.9126 31.3224 44.9077 31.3273 44.4592 31.4203C43.7084 31.5818 43.6548 31.6455 43.6304 31.7336C43.6587 31.7636 43.6967 31.7827 43.7376 31.7874C44.1033 31.8413 44.4689 31.7091 44.8395 31.7532C45.1028 31.7874 45.327 31.9783 45.5708 32.0126C45.0946 32.1417 44.6002 32.1896 44.1082 32.1545C42.2701 32.0469 41.8606 32.7175 42.1239 32.8888Z" fill="black"/>
<path d="M54.8536 41.8464C54.956 41.7241 54.8146 41.6849 54.6976 41.6604C54.4725 41.6182 54.2407 41.6282 54.02 41.6898C53.9277 41.7436 53.8544 41.8246 53.8098 41.9219C53.7653 42.0192 53.7519 42.1279 53.7713 42.2331C53.8932 42.4436 54.7123 42.0129 54.8536 41.8464Z" fill="black"/>
<path d="M54.9414 39.4528C54.9928 39.4495 55.0421 39.4307 55.0828 39.399C55.1198 39.3451 55.1423 39.2826 55.1483 39.2175C55.1543 39.1523 55.1435 39.0867 55.1169 39.027C55.0487 38.8899 54.9317 38.7871 54.8683 38.6501C54.8006 38.3966 54.7159 38.148 54.6148 37.9061C54.6148 37.8718 54.5611 37.8326 54.5368 37.7984C54.3807 37.6075 54.1321 37.5438 53.981 37.3529C53.8298 37.162 53.9371 37.0592 53.8396 36.9369C53.8208 36.9292 53.7998 36.9292 53.7811 36.9369C53.3745 37.1258 52.9888 37.3571 52.6305 37.627C52.5134 37.7103 52.3623 37.8277 52.2502 37.9158L51.1922 38.7382C51.5725 38.9095 51.5725 38.9095 51.5335 39.12C51.4945 39.3305 51.4847 39.3892 51.5335 39.3941C51.7031 39.3732 51.8679 39.3235 52.021 39.2473C52.5533 38.9983 53.1456 38.9082 53.7274 38.9878C54.1467 39.0857 54.4783 39.4528 54.9414 39.4528Z" fill="black"/>
<path d="M53.1131 40.7744C52.6784 40.7085 52.2363 40.7085 51.8016 40.7744C51.5871 40.8479 51.4311 41.2101 51.5042 41.3129C51.6407 41.5087 52.9669 41.2444 53.2691 41.0094C53.3666 40.9311 53.4203 40.8283 53.1131 40.7744Z" fill="black"/>
<path d="M30.1303 89.4933C29.75 89.4933 29.7549 90.1052 29.9353 90.2472C30.1157 90.3891 30.8616 90.815 30.9737 90.4479C31.0371 90.2276 30.5983 89.5766 30.1303 89.4933Z" fill="black"/>
<path d="M102.292 50.8335C102.304 50.8124 102.312 50.7891 102.316 50.7649C102.265 50.517 102.141 50.2902 101.96 50.1139L101.838 50.0209C101.507 49.7909 101.083 49.7419 100.775 49.4678C100.556 49.2769 100.459 48.9538 100.147 48.8608C99.7614 48.8217 99.3811 48.8608 99.0008 48.8119C98.6205 48.7629 98.2792 48.6259 97.9038 48.621C97.6649 48.621 97.7234 48.9391 97.5236 48.9783C97.3237 49.0175 97.1872 48.7531 96.9678 48.7972L96.8605 48.8217C96.685 49.1007 96.8312 49.5461 96.412 49.6978C96.1262 49.3086 95.8979 48.88 95.7343 48.4252C95.6367 47.7742 94.5349 47.0008 94.0961 47.1574C94.0961 47.4658 94.4569 47.5245 94.5349 47.7839C94.296 48.1511 93.8426 47.921 93.5598 48.1364C93.6427 48.2587 94.0474 48.3371 94.2765 48.3713C94.6812 48.4399 95.7391 49.2769 94.8713 49.5951C95.0322 50.0503 95.5197 49.8839 95.8123 50.0845C96.1048 50.2852 96.0756 50.4272 95.9732 50.7258C96.0268 50.8188 96.0853 50.8726 96.7825 51.0391C97.038 51.0887 97.2891 51.1591 97.5333 51.2495C97.8453 51.3817 98.094 51.6313 98.4109 51.739C98.4531 51.7607 98.4972 51.7788 98.5425 51.7929C98.9479 51.8974 99.3628 51.9597 99.7809 51.9789C100.658 52.067 102.219 51.602 102.219 51.323C102.219 51.137 102.136 50.9705 102.145 50.7894C102.194 50.7943 102.194 50.7943 102.292 50.8335Z" fill="black"/>
<path d="M31.7294 88.4312C31.9196 89.0185 34.0696 89.9584 34.2013 89.7185C34.2695 89.5815 32.5826 85.3131 32.5582 85.2788C32.2525 84.8562 31.8585 84.5058 31.4037 84.2521C30.9489 83.9985 30.4444 83.8477 29.9255 83.8104C29.2767 83.8012 28.634 83.9366 28.0436 84.2069C28.1216 84.3586 28.8529 84.5005 29.5403 84.3733C30.5154 84.1922 30.9786 84.6523 31.003 84.8138C30.9298 84.8823 30.7738 84.9558 30.5642 84.7159C30.5642 84.7159 30.5398 84.7159 30.5301 84.7159C30.4228 85.1222 31.0176 85.5187 31.4174 85.783C32.1487 86.2725 32.1389 86.4585 32.1292 87.0214C32.1046 87.2681 32.1346 87.5171 32.217 87.7508C32.2789 87.8804 32.309 88.0231 32.3047 88.1668C32.2072 88.4556 31.9049 88.3333 31.7294 88.4312Z" fill="black"/>
<path d="M34.2939 92.396C34.4792 92.6016 34.1476 92.9638 34.4645 93.1107C35.0057 93.3652 35.2105 92.5771 35.7127 92.6995C35.8051 92.7293 35.8935 92.7704 35.9759 92.8219C36.7213 93.2081 37.488 93.5513 38.2723 93.8498C38.3454 93.8498 38.399 93.8498 38.4283 93.8009C38.5307 93.5512 38.3942 93.2673 38.555 93.0323C39.0426 92.2932 35.0496 90.4821 34.7766 90.4332C34.7368 90.421 34.6944 90.421 34.6547 90.4332C34.6303 90.4968 34.6303 90.4968 34.6547 90.5751C34.782 90.7852 34.8444 91.0285 34.834 91.2742C34.8236 91.5199 34.7408 91.757 34.5962 91.9555C34.4938 91.9946 34.1866 91.8282 33.7576 91.5932C32.9727 91.1625 32.8849 91.1625 32.8313 91.1576C32.7776 91.1527 32.8313 91.2017 32.8313 91.2163C33.2652 91.7107 33.8844 91.9212 34.2939 92.396Z" fill="black"/>
<path d="M59.5097 56.7025C59.1099 56.7025 59.7779 57.3877 59.9144 57.5248C60.8017 58.401 61.377 57.9898 61.377 57.9849C61.6013 57.7598 59.9192 56.7808 59.5097 56.7025Z" fill="black"/>
<path d="M14.9823 52.0572C9.73629 58.4744 6.13821 67.7209 6.13821 67.7209V69.5075C6.28448 69.5907 6.28448 69.5907 7.03042 75.9688L6.39662 75.7681C6.4795 76.5513 7.75686 80.4084 7.76661 80.4378C8.08839 80.2028 8.41992 79.9483 7.88362 78.0491C7.63985 77.1778 7.36195 76.1988 7.76174 72.0626C8.62957 73.3304 8.55644 73.9374 8.4638 74.701C8.36917 75.2294 8.35602 75.7692 8.4248 76.3016C8.63444 77.2365 8.97572 78.1274 9.22924 79.0525C9.54615 80.2518 10.4822 81.1867 10.6626 82.4398C10.8089 83.4531 10.1751 84.5201 10.8869 85.4893C11.0021 85.6295 11.133 85.756 11.2769 85.8662C11.5089 86.0994 11.753 86.3199 12.0083 86.527C12.8663 87.1046 13.7829 87.5941 14.6459 88.1571C15.5088 88.72 16.7618 88.5437 17.5224 89.4199C19.2629 91.4317 19.2629 91.4317 19.9991 91.7842L20.3648 91.9653C23.6167 93.654 23.5436 98.4021 27.3367 99.5866C29.9791 97.3839 29.8329 101.094 29.6525 102.793C29.594 103.326 29.594 103.326 27.9315 105.064C27.9315 105.093 25.7034 108.49 25.8448 109.327C25.8691 109.465 25.8984 109.646 25.9325 109.778C26.5176 112.044 29.8085 118.824 29.8329 118.877C30.691 120.38 32.2706 121.207 33.2457 122.602C33.9819 123.665 34.2208 125.324 33.9478 127.282C33.9478 127.37 32.8264 136.754 34.5231 142.696C36.6829 150.224 41.0415 151.017 41.0854 151.017C37.8286 147.566 37.8286 147.566 38.7939 146.005C38.4478 145.222 38.4478 145.222 38.4137 141.972C38.594 141.972 38.594 141.972 39.3351 142.265C39.3351 142.182 39.3351 142.182 38.8915 140.606C39.808 140.229 39.808 140.229 39.9299 139.715L40.1201 139.646C41.2317 140.493 42.0166 139.602 41.8606 139.02L41.6753 138.379C44.508 139.294 48.0865 132.901 48.1207 132.833C48.8276 132.108 50.0708 131.966 50.5584 131.937C51.6992 131.873 52.1234 130.703 53.0546 130.312C53.2008 130.241 53.3617 130.207 53.5238 130.212C53.6859 130.217 53.8444 130.262 53.9858 130.341C54.3759 130.542 54.4051 130.557 54.5953 130.185C55.0097 129.372 55.2339 128.481 55.5703 127.644C55.7605 127.155 55.6484 126.582 56.131 126.225C56.6868 125.813 56.8916 125.662 56.76 125.211C56.7315 125.12 56.72 125.023 56.7258 124.928C59.3732 124.898 61.1137 122.637 61.1137 122.617C61.1279 122.586 61.1378 122.553 61.143 122.519C61.1917 122.221 61.0357 121.932 61.0796 121.628C61.1479 121.178 61.9182 120.796 61.4794 120.336C61.1674 120.008 60.6944 120.16 60.3434 119.945C59.2123 119.245 58.7833 117.894 57.7399 117.12C56.1798 115.96 54.488 115.015 52.8645 113.948C51.9674 113.204 52.294 111.99 51.8894 111.07C51.0557 109.983 50.651 108.549 49.7491 107.507C48.5643 106.141 46.6483 105.784 45.4928 104.379C44.586 103.263 44.2252 101.794 43.1916 100.757C43.0251 100.589 42.8344 100.447 42.626 100.336C36.9364 97.3056 32.4412 94.9169 30.2327 99.5083C28.8968 97.6091 23.6118 98.0056 25.0744 95.1812C25.6076 94.1663 25.8089 93.0085 25.6497 91.8723C24.504 90.673 22.8317 90.8933 21.4617 90.3206C22.4368 88.9402 22.4368 88.9402 22.3783 88.1081C23.1101 87.4036 23.7125 86.5751 24.1579 85.6607C23.9775 85.3327 22.3003 82.6111 19.9455 87.741C19.1557 87.4032 18.2439 88.3577 17.5078 87.5011C15.7818 85.4942 15.5966 83.6537 15.6405 82.7335C15.6941 81.593 16.8398 81.0937 17.1567 80.1147C17.3615 79.4882 16.6351 78.891 17.0982 78.2596C17.7028 77.4372 20.0235 76.3016 20.511 76.1401C21.4081 75.8415 23.9238 77.4323 23.9531 77.447L24.27 77.3295C24.1432 77.0261 23.8605 76.8401 23.6898 76.561L23.8605 76.282C24.5186 76.1597 29.0138 77.3149 29.0333 77.3344C30.5496 78.9938 28.4873 81.2259 29.9158 82.9048C32.841 81.407 30.1157 78.2204 31.2809 76.0911C32.4461 73.9619 35.0008 74.1723 36.8243 73.1542H36.7901C36.756 73.071 36.7121 72.9535 36.6731 72.8703C36.717 72.792 36.7706 72.6843 36.8096 72.6011H37.107L37.2582 72.278L37.0242 72.0822L38.9743 67.9509C38.7891 68.5971 38.1114 70.5256 38.1114 70.5256C38.3552 70.4669 38.3552 70.4669 39.5204 67.7111C39.6351 68.0537 39.6975 68.4119 39.7057 68.7733C40.32 68.2495 40.4955 67.3391 41.2902 66.967C42.3455 66.7765 43.4097 66.6392 44.4787 66.5559C45.4879 64.4266 45.4879 64.4266 47.1261 63.7022C47.3309 63.7854 47.3308 63.7854 51.6456 62.9679L51.436 63.1784C51.6136 63.3316 51.8166 63.4525 52.0357 63.5357L51.9235 63.8441C49.3347 64.593 49.3347 64.593 49.1543 65.014C50.5535 65.5377 55.7605 64.5245 55.6679 62.312C54.9365 62.498 54.6538 63.2273 54.1077 63.6385C53.6933 63.3497 53.352 63.1099 53.0741 62.9043C53.3215 62.911 53.5644 62.8372 53.7664 62.6938C53.729 62.6731 53.6873 62.6614 53.6445 62.6595C53.2814 62.6194 52.9402 62.4652 52.6695 62.219C52.577 62.1447 52.5146 62.0392 52.4939 61.922C52.4733 61.8049 52.4958 61.6843 52.5573 61.5827C52.5963 61.4946 52.5573 61.4799 52.5573 61.4701C52.4527 61.5745 52.3698 61.6989 52.3137 61.8359C52.2576 61.9729 52.2294 62.1198 52.2307 62.268C51.7821 61.8225 51.7821 61.5141 51.8016 60.7995C51.3628 60.4324 51.3433 60.3785 51.2215 60.0359C52.0503 60.0995 52.65 60.1436 53.079 59.4338C52.8255 58.9149 52.8255 58.9149 46.2534 60.4128C51.3336 57.8381 51.3336 57.8381 55.5606 58.0241C56.2188 58.9247 60.8066 58.3569 61.7865 57.4807C61.7573 56.9423 61.7573 56.9423 62.2741 56.3451L62.2253 56.027L61.3282 55.4787L61.0504 55.3808C60.3695 55.2417 59.6644 55.2804 59.0027 55.4934C59.0027 55.4053 59.0027 55.2878 59.0027 55.1948C59.4902 54.8571 59.6365 54.8522 60.9528 54.813C61.0331 54.81 61.1116 54.7882 61.182 54.7494C61.2795 54.6319 60.6506 53.5355 59.4122 53.4327C59.1343 53.4082 59.1343 53.4082 59.0124 53.3152C59.0124 53.0655 59.2757 52.8893 59.1928 52.6201C59.0758 52.2579 58.6273 52.1796 58.5151 51.8173C58.4712 51.6607 58.5687 51.5775 58.8223 51.4013C59.1928 51.137 59.1928 51.137 58.988 49.9671C58.4761 47.0301 58.4761 47.0301 57.3499 48.0679C57.1744 48.2294 57.3499 48.5573 57.1256 48.6699C56.9013 48.7825 56.5649 48.4937 56.287 48.6699C55.6484 49.1056 55.6484 49.1056 55.5167 49.1007C54.6879 49.0664 54.3807 48.2734 53.7811 47.8965C53.7372 47.6518 54.4636 46.4036 54.9707 46.2225C54.6343 45.9582 54.1662 46.0071 53.8347 45.733C53.7567 45.6694 53.7274 45.591 53.6787 45.3463C53.6787 45.2631 53.625 45.0673 52.7913 44.4261C52.6792 44.3241 52.5406 44.2562 52.3916 44.2303C51.4506 44.1568 50.5974 43.6429 49.6369 43.6967C49.5053 44.5484 48.2718 44.9253 48.6618 45.9973C48.3986 46.34 47.8428 46.2959 47.6575 46.7462C47.4722 47.1966 47.8672 47.7693 47.7063 48.2881C47.7063 48.3126 47.0139 50.388 45.7317 50.2461C45.4538 50.2167 44.7956 50.1971 44.7566 50.6768C44.6223 50.7539 44.4779 50.8116 44.3276 50.8482C43.5963 51.9348 43.84 53.7068 42.1678 54.1718C41.9679 53.369 41.2804 52.9138 40.8368 52.2824C41.0592 52.0605 41.2294 51.7915 41.3348 51.4951C41.4403 51.1987 41.4783 50.8823 41.4462 50.5691L41.8752 50.4125C41.8752 50.3587 41.9289 50.2608 41.9337 50.202C41.8247 50.1477 41.7123 50.1002 41.5973 50.0601C41.2268 49.321 40.3785 49.5706 39.8373 49.1986C39.2961 48.8266 39.1889 48.0825 38.6721 47.6665C38.5719 47.5907 38.4677 47.5205 38.36 47.456C37.8725 47.177 37.3362 47.456 36.8243 47.4119C36.7073 47.221 36.7073 47.221 36.9364 45.919C37.0095 45.4638 37.0095 45.4638 36.0344 45.033C36.2636 43.6429 40.2663 42.3996 41.9727 41.866C41.9727 41.3765 41.4462 41.4206 41.2609 41.122C44.0594 41.5821 44.0594 41.5821 46.1364 40.5052C45.054 40.3241 44.8297 40.285 44.1862 39.5263C45.288 39.5263 46.3411 40.5836 47.4869 39.6927C47.4187 39.606 47.3321 39.5358 47.2333 39.4871C47.2333 39.4871 47.9354 39.0661 48.3352 39.5703C50.261 39.5703 50.261 39.5703 50.8509 39.3158C50.9918 39.2595 51.1233 39.1819 51.241 39.0857C51.5335 38.841 51.3482 38.4004 51.6261 38.1459C51.904 37.8914 52.2307 38.0676 52.5037 37.9256C52.6646 37.8228 52.7475 37.6466 52.884 37.5145C52.884 37.5145 51.9479 35.5125 50.7339 37.4313C49.6662 37.6319 48.2962 39.492 47.56 38.1459C47.8818 37.5389 49.32 37.583 48.9349 36.7313C48.1597 36.7313 47.6429 37.3431 46.9847 37.6173C46.9847 37.2257 48.0037 36.5551 48.0183 36.5502C47.812 36.4453 47.5986 36.3554 47.3796 36.281C49.0421 34.9397 49.0421 34.9398 49.1153 34.7293L48.9983 34.558C49.9343 33.8286 49.9343 33.8286 53.352 33.1531C53.1892 33.0665 53.0095 33.0164 52.8255 33.0063C50.3878 32.7419 45.8146 35.9432 45.7756 35.9432C45.7366 35.9432 45.7756 36.0705 45.8 36.1292C46.0389 36.2124 46.2875 36.2418 46.541 36.3152C46.541 36.3593 46.541 36.4229 46.541 36.4768C46.2043 36.4898 45.8732 36.568 45.5659 36.7068L45.5221 36.8243L45.6586 36.9075C44.8834 37.5732 43.7084 37.4851 43.0112 38.2634C42.7772 37.7494 42.7772 37.7494 43.7279 37.2501C43.3671 37.0054 43.3671 37.0054 41.7192 37.5732C41.6315 37.6026 41.1049 37.7249 39.535 37.0837C39.4863 36.8977 39.574 36.7019 39.535 36.5159C38.1309 36.3935 37.4873 37.0054 36.1953 38.2389C36.1953 37.8082 36.6292 37.6124 36.7121 37.2355C35.9759 37.0984 35.2105 37.4704 34.4889 37.0886C34.9082 36.8928 35.464 36.9516 35.7517 36.5061L35.659 36.3642C35.4591 36.3984 35.425 36.4033 34.9521 36.1733C34.9196 36.0628 34.8755 35.9562 34.8205 35.8551C34.445 35.8061 34.1379 36.0362 33.7966 36.1292C33.8923 36.0425 33.9951 35.9639 34.1038 35.8943C33.8772 35.9565 33.6581 36.0435 33.4505 36.1537C33.7342 35.8646 34.0637 35.6248 34.4255 35.4439L33.2896 35.8747C33.2896 35.8747 27.1855 39.7416 24.7283 41.9346C21.1857 45.0105 17.9241 48.3982 14.9823 52.0572Z" fill="black"/>
<path d="M39.6276 94.6281C39.2181 94.7358 39.496 95.3183 39.8763 95.5239C40.2874 95.7065 40.7334 95.7967 41.1829 95.7882C41.2219 95.749 41.1829 95.612 40.5832 95.1568C39.9835 94.7015 39.7934 94.6428 39.6276 94.6281Z" fill="black"/>
<path d="M108.664 68.2055C108.867 68.1444 109.074 68.0954 109.283 68.0586C109.532 68.0244 109.771 68.2006 110.029 68.0293C110.166 67.9314 110.234 67.6181 110.229 67.0992C110.227 66.8847 110.193 66.6718 110.127 66.4678C110.074 66.3582 110.061 66.2339 110.088 66.1156C110.115 65.9972 110.182 65.8918 110.278 65.8168C110.423 65.6785 110.515 65.4928 110.536 65.293C110.542 65.0621 110.466 64.8367 110.322 64.6567C110.26 64.5755 110.193 64.4987 110.122 64.4266C109.941 64.2504 109.727 64.1133 109.546 63.9371C109.47 63.8706 109.409 63.7889 109.366 63.6973C109.366 63.6973 109.366 63.6679 109.332 63.663C109.298 63.6581 107.752 63.5113 108.459 64.3091C108.507 64.3731 108.574 64.4208 108.649 64.4462C108.599 64.463 108.546 64.4729 108.493 64.4756C108.131 64.491 107.776 64.581 107.45 64.7399C107.36 64.7826 107.283 64.8471 107.224 64.9274C107.165 65.0077 107.127 65.1013 107.114 65.2C107.113 65.2831 107.131 65.3652 107.164 65.4411C107.198 65.517 107.247 65.5849 107.309 65.6405C107.472 65.757 107.647 65.857 107.83 65.9391L107.791 65.9832C107.457 66.3478 107.165 66.7484 106.919 67.1775C106.738 67.5055 106.704 67.667 106.767 67.8628C106.884 68.1761 107.84 68.4013 108.664 68.2055Z" fill="black"/>
<path d="M116.362 89.1556C116.39 89.1628 116.42 89.1639 116.448 89.1588C116.477 89.1538 116.504 89.1426 116.528 89.1262C116.528 89.1262 116.894 88.9256 116.903 88.9109C116.962 88.813 116.811 88.6612 116.499 88.5095C116.187 88.3578 115.582 88.2305 115.709 88.5633C115.864 88.8207 116.091 89.0267 116.362 89.1556Z" fill="black"/>
<path d="M111.926 67.1237C111.862 67.1237 111.857 67.1482 111.852 67.2167L112.262 67.3978C112.166 67.2877 112.053 67.1949 111.926 67.1237Z" fill="black"/>
<path d="M127.576 76.8498C128.302 77.775 129.199 80.384 129.492 81.4119C129.141 79.7868 128.341 75.9443 127.927 74.329C125.977 67.9118 125.952 67.7845 124.514 64.4755L122.925 61.0981C122.861 60.9806 122.803 60.8631 122.734 60.7456C122.94 61.322 123.183 61.8844 123.461 62.4295C123.315 62.2533 123.207 62.0526 123.076 61.8715C123.183 62.498 123.597 62.9777 123.861 63.5308L123.744 63.5651C122.515 61.5435 121.642 59.3359 120.389 57.3339C121.067 58.1807 121.472 59.2282 122.266 59.9967C122.184 59.5072 120.346 56.2864 118.976 54.6123C118.535 54.14 118.145 53.6233 117.81 53.0704C117.88 53.1251 117.947 53.184 118.01 53.2467C117.886 53.039 117.743 52.844 117.581 52.6642L117.464 52.7033C117.119 52.3725 116.813 52.003 116.552 51.602C116.616 51.6607 116.704 51.7292 116.767 51.7782C116.743 51.3915 115.465 50.1531 115.363 50.0797C115.37 50.2853 115.426 50.4864 115.524 50.667C115.036 50.295 114.983 49.6391 114.524 49.2622C114.524 49.5412 114.763 49.7517 114.778 50.0209C114.441 50.3733 114.441 50.3734 114.383 50.6426C114.295 51.044 114.763 53.648 114.768 53.6725C115.192 55.4102 114.983 55.8899 114.958 55.9388C114.319 57.1919 114.319 57.1919 113.418 57.4514C113.091 57.5493 113.062 57.6472 113.081 58.0388C113.081 58.0926 113.427 63.291 115.494 63.0903C116.153 63.0267 116.201 61.9791 116.226 61.475C116.333 61.6316 118.4 65.9293 118.663 67.1384C118.78 67.7111 118.888 68.2544 119.375 68.4306C119.749 67.8083 119.937 67.0913 119.916 66.365C119.673 64.7986 119.887 64.7056 120.36 64.5C120.482 64.1916 120.487 64.0595 119.78 63.1197C119.292 62.4735 119.292 62.4735 118.912 60.7603C118.771 60.1093 119.556 59.6296 119.244 58.9492C118.434 57.1675 118.434 57.1675 118.425 57.0794C118.415 56.9912 118.425 56.9472 118.425 56.8885L118.522 56.8101C118.941 57.1381 120.155 58.7681 120.155 59.1156L120.024 59.0814C120.287 62.2679 120.287 62.2679 121.072 63.7658C121.755 65.0678 123.344 65.4692 124.036 66.7663C123.884 66.665 123.743 66.5468 123.617 66.4139L123.495 66.4384C123.52 66.582 123.553 66.7241 123.593 66.8643C123.092 66.4443 122.559 66.0646 121.998 65.7286C122.344 66.8936 123.061 67.9264 123.217 69.1551C122.564 68.8956 122.856 67.9118 122.125 67.716L122.013 67.8041C122.013 67.8041 122.301 69.576 122.349 69.7082C122.398 69.8403 122.705 70.7753 122.559 71.069C122.164 70.8879 122.164 70.8879 122.071 70.883C121.969 70.9906 121.901 71.1179 121.803 71.2256C121.803 71.2648 121.833 71.3088 121.842 71.3431C120.019 70.5501 120.019 70.5501 119.941 70.7263L119.624 70.7949C119.268 70.4057 118.854 70.0753 118.395 69.8159L119.244 70.3054C118.977 69.89 118.565 69.591 118.088 69.4683C117.84 69.39 117.776 69.3753 117.362 68.3278C117.055 67.5593 116.752 66.4873 117.04 65.7629C117.157 65.4643 117.152 64.0252 116.825 63.8686C116.786 63.8686 115.816 63.5015 115.816 64.0399C116.024 65.4626 116.36 66.8633 116.821 68.225C116.923 68.4255 116.995 68.6399 117.035 68.8614C116.972 68.8956 116.957 68.9005 116.674 68.8614L116.021 68.7488C115.509 68.0292 114.797 67.4663 114.407 66.6587C114.261 66.219 114.066 65.7971 113.827 65.4007C113.47 64.935 113 64.5692 112.462 64.3385C112.949 64.1329 114.056 62.6253 113.042 62.219C112.865 62.1538 112.682 62.1047 112.496 62.0721C111.818 61.9253 111.696 61.9008 111.75 61.7295C111.862 61.3869 112.662 60.9512 112.199 60.7505C112.199 60.7505 110.916 60.3247 110.57 60.7114C110.543 60.7588 110.529 60.8131 110.531 60.868C110.448 61.289 110.614 61.7099 110.531 62.1309C110.448 62.5518 110.107 62.6987 110.122 63.0805C110.209 63.1539 110.429 63.2078 110.999 63.0266C111.204 62.9581 111.384 62.8994 111.487 63.0022C111.857 63.4182 111.15 63.7266 111.18 64.1427C111.178 64.4264 111.255 64.7051 111.402 64.9473C111.549 65.1895 111.761 65.3855 112.013 65.5133C112.691 65.9734 112.779 66.0321 112.881 66.1741C112.881 66.3013 112.75 66.3992 112.774 66.5363C112.852 66.967 113.12 67.3342 113.164 67.7698C113.125 68.1908 112.73 67.7992 112.447 67.5153C112.325 67.3929 112.325 67.3929 111.916 67.2118C111.916 67.76 112.379 68.1908 112.301 68.7537C112.262 69.0572 111.945 69.1159 111.506 69.1648C111.389 69.1648 111.209 69.1991 111.224 69.3313C111.238 69.4634 111.331 69.6543 112.247 69.948C112.628 70.0704 113.422 70.3249 113.369 70.5893C113.146 70.5294 112.915 70.5095 112.686 70.5305C112.68 70.5629 112.68 70.5961 112.686 70.6284C112.571 70.6088 112.453 70.6277 112.35 70.6823C112.096 70.79 111.969 71.0592 111.731 71.1718C111.492 71.2843 111.102 71.3822 110.804 71.5389C110.804 71.5389 110.804 71.5927 110.804 71.6172C110.892 71.671 110.916 71.6857 111.828 71.8864C111.753 72.0275 111.661 72.159 111.555 72.278C110.614 71.8913 110.502 71.7249 110.195 71.2745C110.239 71.5172 110.296 71.7574 110.365 71.9941L110.161 72.2731C109.916 72.2927 109.67 72.2927 109.425 72.2731C109.064 71.813 109.064 71.813 108.328 71.534L108.089 71.7787L108.523 72.5472L108.201 72.6402C112.238 75.4646 109.956 79.728 109.917 79.7623C107.884 78.8763 106.095 77.54 104.101 76.6002C104.142 76.8406 104.211 77.0755 104.305 77.3002C104.281 77.354 102.565 83.0076 103.203 83.4726C102.409 85.1222 102.409 85.1222 102.316 85.2691C103.803 85.6655 104.115 85.7585 104.686 86.1061C104.628 86.4689 104.596 86.8352 104.588 87.2025L108.376 87.2662C109.351 87.4815 110.005 86.3704 109.78 85.3914C111.102 83.3405 111.131 83.3405 112.706 83.2817C113.354 81.4804 113.354 81.4804 113.549 81.4119C114.388 81.0986 114.588 82.1412 115.192 82.3566C116.084 81.5685 116.767 81.0937 117.367 82.1412C118.349 84.5817 119.205 87.0717 119.931 89.601C119.807 89.8297 119.756 90.0911 119.785 90.3499C119.848 90.5066 120.102 90.5311 120.072 90.7611C120.043 90.9912 119.902 91.1331 119.887 91.3436C119.881 91.3958 119.89 91.4486 119.914 91.4955C119.937 91.5425 119.974 91.5816 120.019 91.6079C120.041 91.6213 120.066 91.6296 120.092 91.6324C119.951 92.2639 119.507 92.1757 117.835 91.8331C118.082 92.6331 118.421 93.4018 118.844 94.1239C119.205 93.6344 119.049 92.9981 119.331 92.489L119.614 92.6359C119.994 92.3471 120.253 91.9359 120.619 91.6569V91.6031C120.712 91.5719 120.798 91.5207 120.871 91.4532C120.943 91.3856 121 91.3031 121.038 91.2115C121.06 91.1459 121.078 91.0788 121.091 91.0108C121.135 90.7856 121.126 90.5506 121.169 90.3206V90.2716C121.223 90.4625 121.291 90.6877 121.35 90.859C121.404 90.5544 121.372 90.2407 121.257 89.9535C121.291 89.836 121.325 89.7234 121.35 89.601C121.423 89.2192 121.311 89.1115 121.184 89.0675C121.103 89.0478 121.019 89.0379 120.935 89.0381L120.497 87.8389L120.658 87.5843C120.662 87.6294 120.672 87.6738 120.687 87.7165C120.687 87.7165 120.979 88.4899 121.009 88.5193C121.145 88.5193 121.35 87.5746 121.413 87.0753C121.441 86.8381 121.456 86.5995 121.457 86.3606L122.237 88.4018C122.237 88.4361 122.237 88.4361 122.237 92.8072L122.515 96.6301C122.619 96.428 122.709 96.2186 122.783 96.0036C122.977 95.2009 123.093 94.3812 123.129 93.5561C123.495 90.9227 123.495 90.9226 123.802 90.8248C124.207 91.0744 124.933 91.9506 124.875 92.7338C125.051 92.5848 125.214 92.421 125.362 92.2443L125.694 92.3373C126.776 90.2031 125.86 87.7018 126.922 85.5579C127.132 85.5711 127.331 85.6537 127.488 85.7928L127.259 86.0229C127.369 86.3449 127.544 86.6412 127.771 86.8942C127.752 87.2572 127.627 87.6065 127.41 87.8976C127.53 88.3424 127.626 88.7934 127.698 89.2486C128.995 89.0039 127.776 87.3347 128.414 86.5368C128.926 86.6005 128.956 86.7865 128.965 87.2074L128.702 87.4424C128.775 87.7704 128.775 87.7703 128.702 88.8227L128.434 89.0185C128.536 91.2163 129.77 93.3309 128.897 95.5924L128.575 95.6462C127.863 94.6966 128.639 92.6457 126.991 92.5135C126.904 92.7155 126.757 92.8862 126.571 93.003C126.411 92.8806 126.196 92.724 126.025 92.6212C126.009 92.8299 126.048 93.0393 126.138 93.2281C125.689 93.4044 125.284 93.0617 124.846 93.1156C124.732 93.3322 124.638 93.5582 124.563 93.7911L124.821 93.9771C124.568 95.1763 124.1 97.4035 125.094 99.0971L125.387 98.9552L125.484 98.6419C125.811 99.1852 125.733 99.8852 126.152 100.394C126.295 100.222 126.415 100.031 126.508 99.8265C126.605 100.024 126.737 100.201 126.898 100.35C125.611 104.756 125.435 105.456 124.534 106.464C123.929 106.195 123.87 106.023 123.885 105.338C123.685 105.282 123.472 105.296 123.281 105.377C121.267 104.496 122.51 101.545 120.355 100.747C119.702 101.324 119.726 102.274 119.19 102.915H118.854C118.522 102.426 115.295 96.4245 115.153 95.7392C115.109 95.5239 115.363 95.2497 115.533 95.1225C115.933 94.7994 115.933 94.7994 116.635 92.1855C116.409 91.872 116.163 91.5729 115.899 91.2898C115.373 91.4611 115.373 91.4611 113.778 90.4479C113.561 90.5487 113.356 90.6753 113.169 90.8248C111.219 89.1458 108.537 90.9814 106.567 89.415L106.241 89.2731C105.563 89.1752 105.334 89.1458 104.934 88.0738C104.842 87.9417 104.837 87.9417 104.832 87.9417C104.706 87.9828 104.583 88.0353 104.466 88.0983C103.862 88.4654 103.925 89.3122 103.33 89.6891C102.589 90.1786 101.629 89.8017 100.892 90.3402C100.678 90.4968 100.615 90.8933 100.512 91.1429C99.4152 93.8253 99.4152 93.8253 98.562 93.9232C97.7173 94.0488 96.8957 94.2995 96.1243 94.6672C95.4856 95.1812 90.654 99.3517 90.6492 99.3566C90.0397 100.712 90.5468 102.215 90.0934 103.586C89.7131 104.741 87.8897 104.712 87.9433 106.219C88.0164 108.486 88.4308 110.708 88.6844 112.95C88.7867 113.894 90.7077 117.678 91.2732 117.845C94.0815 118.54 97.0604 118.442 99.7419 119.724C99.8321 119.781 99.9047 119.863 99.9515 119.959C100.307 120.561 99.6834 121.193 100.025 121.795C100.366 122.397 101.058 122.397 101.536 122.774C101.536 123.983 101.536 123.983 100.702 124.869C98.4548 127.346 98.4548 127.346 98.3524 128.246C98.1915 129.661 97.9721 131.599 94.9396 134.952C93.5354 136.499 91.595 137.312 90.0056 138.599C88.543 139.798 87.7678 141.619 86.349 142.867C80.8251 147.762 80.6935 147.811 79.9524 148.183C79.3851 148.443 78.8847 148.829 78.4898 149.314C80.0402 150.469 82.5754 149.803 83.4091 149.568L86.7732 148.589L91.1367 147.062C92.1898 146.529 93.0138 145.638 94.1059 145.163C95.354 144.62 96.7581 144.639 98.0062 144.076C100.975 142.725 104.52 139.216 104.92 138.765C106.514 136.964 110.59 134.771 111.784 134.149C113.691 133.102 116.933 129.744 117.937 128.339C117.63 128.099 117.63 128.099 116.962 128.016C116.889 127.776 116.889 127.776 118.054 125.368C118.488 124.477 118.595 123.488 118.902 122.553C119.697 120.14 120.999 117.918 121.628 115.436L123.641 107.639C123.71 107.928 123.71 107.928 123.485 109.078C123.714 108.972 123.907 108.802 124.041 108.588C123.588 114.849 119.941 120.003 118.122 125.784C118.849 125.711 118.849 125.711 119.097 125.872C122.023 122.877 122.023 122.877 122.237 122.446L122.067 122.769C122.169 122.593 122.305 122.358 122.403 122.177L122.505 121.981L123.149 120.723C123.437 120.145 123.792 119.421 124.651 117.414L124.534 117.722C125.236 115.97 126.133 113.806 126.718 112.078C127.205 110.311 127.956 107.962 128.385 106.17C128.487 105.627 128.585 105.123 128.678 104.653C128.741 103.135 128.78 102.9 129.653 97.7559C129.65 97.7803 129.65 97.8049 129.653 97.8293C129.984 90.5213 129.984 90.5213 130.062 90.1884V90.2276C130.062 87.9123 130.326 87.1144 130.101 84.7208L129.126 79.777C128.795 78.7131 128.269 77.7205 127.576 76.8498ZM115.338 68.7537C115.368 68.7537 115.377 68.7537 115.621 68.9054L115.309 68.7879C115.309 68.7879 115.324 68.7684 115.338 68.7635V68.7537ZM121.311 86.2529C121.304 86.2666 121.296 86.2797 121.286 86.2921C121.202 86.5127 121.136 86.7404 121.091 86.9725C121.071 87.0521 121.031 87.1253 120.974 87.1852C120.918 87.2451 120.848 87.2898 120.77 87.3151C120.729 87.3258 120.692 87.3482 120.663 87.3794C120.635 87.4107 120.616 87.4495 120.609 87.4913V87.5207C119.985 86.9284 119.487 86.4047 118.927 81.6468C119.101 81.5194 119.307 81.4416 119.522 81.4217L121.355 86.2138C121.337 86.2265 121.322 86.2433 121.311 86.2627V86.2529Z" fill="black"/>
</g>
<path d="M129.004 100.277C129.679 99.0722 130.068 97.7276 130.14 96.3475C130.213 94.9675 129.968 93.5892 129.424 92.3197C128.88 91.0503 128.051 89.924 127.003 89.0283C125.955 88.1326 124.715 87.4918 123.38 87.1555C122.045 86.8192 120.65 86.7966 119.305 87.0894C117.96 87.3822 116.7 87.9826 115.623 88.8438C114.547 89.705 113.683 90.8039 113.098 92.055C112.513 93.3061 112.224 94.6757 112.252 96.0574V96.1015C112.252 96.777 112.442 97.3497 112.525 98.0937L113.695 106.679C113.729 106.928 113.82 107.166 113.961 107.373C114.102 107.581 114.289 107.753 114.508 107.875C114.726 107.998 114.97 108.068 115.22 108.079C115.47 108.091 115.719 108.044 115.948 107.942L123.714 104.516C124.39 104.262 125.051 103.972 125.694 103.645H125.718C127.096 102.84 128.232 101.677 129.004 100.277ZM119.292 99.2978C118.613 98.9154 118.061 98.3393 117.708 97.6422C117.354 96.9452 117.215 96.1585 117.306 95.3818C117.398 94.605 117.717 93.8731 118.224 93.2784C118.73 92.6837 119.4 92.2531 120.15 92.0409C120.9 91.8287 121.695 91.8446 122.436 92.0864C123.177 92.3282 123.83 92.7852 124.312 93.3995C124.795 94.0139 125.085 94.758 125.146 95.5378C125.207 96.3175 125.036 97.098 124.655 97.7804C124.403 98.2341 124.064 98.6334 123.658 98.9553C123.251 99.2772 122.786 99.5155 122.288 99.6565C121.789 99.7974 121.268 99.8383 120.754 99.7768C120.24 99.7152 119.744 99.5525 119.292 99.2978Z" fill="#2D9CDB"/>
<path d="M6.94265 37.5291L3.52984 42.5073C2.23575 44.6621 1.70006 47.191 2.0087 49.6881C4.28554 67.4516 30.2619 87.6039 67.0471 95.284L70.3771 90.0465C30.4374 81.7056 2.92529 56.8738 6.94265 37.5291Z" fill="#2F80ED"/>
<path d="M60.6749 99.5915C61.0747 99.6601 76.5786 94.9512 76.5786 94.9512L64.1365 83.2034L60.6749 99.5915Z" fill="#2F80ED"/>
<path d="M22.7337 100.715C21.1108 100.306 19.4159 100.278 17.7807 100.634C16.1454 100.99 14.6139 101.719 13.3051 102.766C11.9964 103.813 10.9457 105.148 10.2347 106.669C9.52366 108.189 9.17149 109.854 9.20554 111.534C9.2396 113.213 9.65895 114.862 10.431 116.353C11.2031 117.843 12.307 119.135 13.6571 120.127C15.0072 121.119 16.567 121.786 18.2153 122.074C19.8637 122.363 21.5561 122.266 23.1611 121.791L23.2044 121.769C23.9883 121.533 24.6024 121.148 25.4548 120.81L35.1024 116.683C35.3836 116.565 35.6335 116.383 35.8319 116.151C36.0304 115.919 36.172 115.644 36.2454 115.347C36.3187 115.05 36.3218 114.74 36.2543 114.442C36.1869 114.143 36.0508 113.865 35.8569 113.629L29.3719 105.578C28.8624 104.864 28.3121 104.18 27.724 103.53L27.706 103.495C26.3258 102.139 24.6088 101.179 22.7337 100.715ZM24.6985 112.468C24.469 113.39 23.9725 114.223 23.2716 114.862C22.5707 115.501 21.697 115.917 20.7607 116.057C19.8245 116.197 18.8679 116.056 18.0117 115.651C17.1555 115.245 16.4382 114.594 15.9505 113.78C15.4627 112.965 15.2264 112.024 15.2713 111.075C15.3163 110.125 15.6406 109.211 16.2031 108.446C16.7656 107.682 17.5412 107.102 18.4319 106.78C19.3225 106.458 20.2882 106.409 21.2069 106.638C21.8171 106.79 22.3914 107.062 22.897 107.437C23.4025 107.812 23.8295 108.284 24.1536 108.825C24.4776 109.366 24.6923 109.966 24.7854 110.59C24.8785 111.215 24.8482 111.851 24.6963 112.464L24.6985 112.468Z" fill="#2F80ED"/>
<path d="M116.782 26.6968C117.708 24.7888 118.183 22.6921 118.17 20.5697C118.158 18.4473 117.658 16.3563 116.709 14.4596C115.761 12.5628 114.389 10.9113 112.701 9.63355C111.013 8.35579 109.054 7.4862 106.977 7.09241C104.899 6.69863 102.76 6.79127 100.724 7.36313C98.6879 7.93499 96.8109 8.97065 95.2387 10.3896C93.6665 11.8085 92.4416 13.5724 91.6591 15.5441C90.8766 17.5158 90.5577 19.6422 90.7272 21.7578V21.8214C90.8149 22.8543 91.1318 23.7158 91.322 24.8514L93.8913 37.8963C93.9633 38.2766 94.1226 38.6348 94.3566 38.9425C94.5905 39.2502 94.8926 39.499 95.239 39.6691C95.5854 39.8391 95.9664 39.9258 96.352 39.9223C96.7375 39.9187 97.1169 39.8251 97.4602 39.6486L109.059 33.6965C110.069 33.2473 111.054 32.7423 112.008 32.1839L112.052 32.1595C114.087 30.7958 115.72 28.9094 116.782 26.6968ZM101.804 26.08C100.729 25.5551 99.8332 24.722 99.2297 23.686C98.6261 22.65 98.3421 21.4576 98.4134 20.2596C98.4847 19.0615 98.9081 17.9116 99.6302 16.9551C100.352 15.9986 101.341 15.2785 102.47 14.8859C103.6 14.4933 104.82 14.4457 105.977 14.7491C107.133 15.0526 108.174 15.6935 108.968 16.5909C109.762 17.4882 110.273 18.6017 110.437 19.7906C110.6 20.9795 110.409 22.1904 109.888 23.2703C109.186 24.7188 107.941 25.8285 106.425 26.3553C104.909 26.8822 103.247 26.7832 101.804 26.08Z" fill="#2F80ED"/>
<path d="M37.0095 59.424C37.0115 58.6492 36.8353 57.8844 36.4948 57.189C36.1544 56.4937 35.6587 55.8866 35.0463 55.415C34.434 54.9434 33.7216 54.6199 32.9645 54.4698C32.2073 54.3198 31.4259 54.3471 30.681 54.5497C29.9361 54.7522 29.2478 55.1246 28.6696 55.6379C28.0915 56.1511 27.639 56.7913 27.3475 57.5087C27.056 58.2262 26.9333 59.0014 26.9889 59.7743C27.0445 60.5471 27.277 61.2966 27.6682 61.9645C27.8583 62.2924 28.1021 62.5225 28.3458 62.8651L31.2711 66.737C31.3547 66.8532 31.4646 66.9479 31.5917 67.0132C31.7189 67.0785 31.8596 67.1125 32.0024 67.1125C32.1452 67.1125 32.286 67.0785 32.4131 67.0132C32.5403 66.9479 32.6502 66.8532 32.7337 66.737L35.5908 62.9484C35.8502 62.6353 36.0927 62.3085 36.3172 61.9694C36.7703 61.1982 37.0093 60.3193 37.0095 59.424ZM31.9927 61.6169C31.5559 61.6169 31.1289 61.4869 30.7657 61.2432C30.4025 60.9996 30.1194 60.6533 29.9522 60.2481C29.7851 59.8429 29.7413 59.3971 29.8265 58.967C29.9118 58.5368 30.1221 58.1417 30.431 57.8316C30.7399 57.5215 31.1334 57.3103 31.5618 57.2248C31.9902 57.1392 32.4343 57.1831 32.8379 57.3509C33.2414 57.5188 33.5864 57.803 33.829 58.1676C34.0717 58.5323 34.2013 58.961 34.2013 59.3996C34.2013 59.9876 33.9686 60.5516 33.5544 60.9675C33.1402 61.3833 32.5784 61.6169 31.9927 61.6169Z" fill="#2F80ED"/>
</g>
<defs>
<clipPath id="clip0_5_73">
<rect width="137" height="163" fill="white"/>
</clipPath>
</defs>
</svg>
